<?xml version="1.0" encoding="UTF-8"?>
<svg id="Layer_1" data-name="Layer 1" xmlns="http://www.w3.org/2000/svg" viewBox="0 0 75.97 76.06">
  <defs>
    <style>
      .cls-1 {
        fill: #fff;
        stroke-width: 0px;
      }
    </style>
  </defs>
  <path class="cls-1" d="M38.39,0C18.69-.2.14,15.6,0,37.89c-.12,20.87,16.92,38.1,37.65,38.17,22.54.07,38.61-18.45,38.32-37.9C76.32,17.43,59.02.22,38.39,0ZM26.2,57.26c-1.34-.05-2.34-1.17-2.26-2.53.07-1.29,1.02-2.19,2.32-2.19,1.37,0,2.43,1.03,2.41,2.37-.03,1.31-1.17,2.39-2.47,2.35ZM31.89,52.84c-1.63.02-3.05-1.38-3.08-3.02-.03-1.73,1.25-3.04,2.97-3.05,1.72-.02,3.09,1.28,3.11,2.94.02,1.61-1.42,3.1-3,3.13ZM54.54,35.37c.61,3.14-.34,5.85-2.85,7.91-1.99,1.62-4.28,2.15-6.74,1.35-1.61-.52-3.01-.44-4.58.33-3.48,1.72-6.9.92-9.48-2.08-.94-1.1-1.94-1.71-3.37-2.01-3.57-.77-6.04-3.74-6.26-7.26-.22-3.57,1.98-6.85,5.63-7.97,1.51-.46,2.36-1.27,3.1-2.64,2.34-4.36,7.6-5.7,11.42-2.74,1.73,1.34,3.35,1.68,5.44,1.59,4.4-.19,7.91,3.47,7.86,8.07-.03.27.01.77-.13,1.22-.42,1.41-.32,2.78-.04,4.23Z"/>
</svg>