<?xml version="1.0" encoding="UTF-8"?>
<svg id="Layer_1" data-name="Layer 1" xmlns="http://www.w3.org/2000/svg" viewBox="0 0 20 20">
  <defs>
    <style>
      .cls-1 {
        fill: #2c317a;
      }

      .cls-1, .cls-2 {
        stroke-width: 0px;
      }

      .cls-2 {
        fill: #eb2a26;
      }
    </style>
  </defs>
  <path class="cls-1" d="M17.77,9.5c.44,0,.81-.04,1.16.02.18.03.47-.05.47.39s-.28.39-.45.43c-.34.08-.72.06-1.16.08-.68,4.13-3.04,6.64-7.32,7.27-.02.35-.04.67-.05.99-.01.31-.03.65-.44.63-.38-.02-.43-.35-.45-.66-.01-.29-.03-.59-.05-.95-4.14-.65-6.6-3.01-7.26-7.25-.39-.03-.77-.04-1.15-.09-.28-.04-.55-.18-.46-.5.05-.16.31-.32.5-.35.35-.06.71-.02,1.09-.02.64-4.27,3.06-6.67,7.32-7.37,0-.35-.05-.72.02-1.05.05-.21.03-.54.44-.54s.43.22.43.52c0,.33,0,.65,0,1.06,4.21.67,6.7,3.04,7.36,7.39ZM10.41,16.62c3.26.11,6.71-3.38,6.23-6.19-.32-.02-.64-.03-.96-.06-.28-.03-.55-.17-.47-.49.04-.16.29-.33.47-.37.34-.07.69-.06,1.03-.07.07-3.21-3.46-6.67-6.25-6.16-.02.31,0,.64-.07.95-.04.18-.2.44-.36.48-.32.09-.46-.18-.5-.46-.04-.35-.05-.7-.08-1.04-3.2-.07-6.62,3.46-6.1,6.3.31,0,.64-.04.95.02.19.04.51-.02.51.36s-.31.43-.5.48c-.33.1-.7.07-1.04.09-.15,3.12,3.21,6.36,6.18,6.18.02-.34,0-.71.09-1.04.06-.2.19-.5.48-.5s.32.32.36.51c.06.31.02.65.02,1.04Z"/>
  <path class="cls-1" d="M13.87,8.68c.63,2.15-.31,4.19-2.25,5.03-1.89.81-4.11.09-5.17-1.68-1.05-1.76-.61-4.08.99-5.34,1.88-1.47,4.38-.95,5.5.45-.19.15-.37.3-.58.47-.3-.19-.57-.37-.86-.52-1.29-.69-2.79-.46-3.82.57-.99.99-1.21,2.61-.53,3.84.69,1.24,2.11,1.87,3.54,1.58,1.36-.28,2.42-1.51,2.51-2.94.04-.55-.08-1.14.65-1.45Z"/>
  <path class="cls-2" d="M9.89,11.93c-.55-.62-1.03-1.11-1.45-1.65-.12-.16-.18-.54-.07-.68.23-.3.52-.13.75.1.25.26.49.52.79.83.23-.17.44-.29.62-.46,1.13-1.05,2.25-2.11,3.38-3.16.12-.11.24-.23.36-.33.24-.21.51-.36.77-.07.26.3.05.55-.18.76-1.62,1.53-3.25,3.05-4.97,4.66Z"/>
</svg>