<?xml version="1.0" encoding="UTF-8"?>
<svg id="Layer_1" data-name="Layer 1" xmlns="http://www.w3.org/2000/svg" viewBox="0 0 20 20">
  <defs>
    <style>
      .cls-1 {
        fill: #2c317a;
        stroke-width: 0px;
      }
    </style>
  </defs>
  <path class="cls-1" d="M8.99,6.82c.72-.47,1.44-.48,2.16-.02.13-.18.24-.33.35-.47,1.13-1.42,3.1-1.41,4.2.04.54.71,1.03,1.46,1.54,2.19.35.49.7.99,1.05,1.48.98,1.37,1.12,2.83.31,4.3-.81,1.47-2.13,2.17-3.81,2.02-1.64-.15-2.76-1.05-3.35-2.6-.04-.1-.08-.19-.13-.29-.01-.02-.03-.04-.09-.11-.76.4-1.56.54-2.35-.09-.11.27-.2.45-.27.64-.87,2.15-3.3,3.09-5.36,2.09-2.07-1-2.88-3.61-1.65-5.57.88-1.4,1.84-2.75,2.83-4.08,1.08-1.45,3.07-1.42,4.2,0,.11.14.22.29.35.47ZM8.48,10.43c.11-1.02.39-2,.18-2.99-.33-1.58-2.24-2.28-3.45-1.23-.79.68-1.25,1.63-1.83,2.53,2.1-.6,3.75-.02,5.09,1.7ZM16.68,8.78l.11-.13c-.53-.74-1.02-1.52-1.61-2.22-.55-.66-1.32-.84-2.15-.62-.8.21-1.36.74-1.53,1.54-.21,1.02-.03,2.05.17,3.19,1.32-1.82,2.95-2.4,5-1.76ZM15.14,15.97c1.94.01,3.51-1.55,3.52-3.5,0-1.91-1.53-3.48-3.43-3.51-2.06-.03-3.51,1.52-3.53,3.78-.02,1.68,1.63,3.21,3.45,3.22ZM4.96,8.96c-1.92,0-3.49,1.6-3.47,3.54.02,1.89,1.58,3.46,3.48,3.46,1.93,0,3.45-1.5,3.48-3.18.06-2.8-1.95-3.82-3.49-3.82ZM11.13,10.57c-.05-1.07-.08-2.01-.15-2.95-.03-.45-.39-.73-.87-.74-.51-.02-.9.26-.94.75-.08.94-.12,1.88-.17,2.9.72-.27,1.38-.36,2.13.04ZM11.34,12.03c.01-.68-.54-1.27-1.22-1.3-.7-.03-1.33.56-1.34,1.27-.01.67.55,1.26,1.23,1.3.72.03,1.32-.54,1.33-1.26Z"/>
  <path class="cls-1" d="M18.1,12.47c0,1.64-1.33,2.96-2.96,2.94-1.64-.01-2.95-1.35-2.93-2.98.02-1.64,1.34-2.95,2.97-2.94,1.65,0,2.93,1.31,2.92,2.98ZM17.68,12.45c0-1.41-1.16-2.55-2.56-2.53-1.37.03-2.48,1.17-2.48,2.54,0,1.41,1.17,2.56,2.57,2.53,1.37-.03,2.48-1.17,2.47-2.54Z"/>
  <path class="cls-1" d="M2.01,12.47c0-1.63,1.32-2.97,2.95-2.97,1.63,0,2.98,1.33,2.98,2.94,0,1.62-1.35,2.98-2.95,2.98-1.63,0-2.97-1.33-2.98-2.95ZM5.02,9.92c-1.36-.02-2.54,1.1-2.58,2.45-.04,1.39,1.1,2.59,2.49,2.62,1.39.03,2.59-1.15,2.58-2.53,0-1.35-1.15-2.52-2.5-2.54Z"/>
</svg>