<?xml version="1.0" encoding="UTF-8"?>
<svg id="Layer_1" data-name="Layer 1" xmlns="http://www.w3.org/2000/svg" viewBox="0 0 76.21 76.49">
  <defs>
    <style>
      .cls-1 {
        fill: #fff;
        stroke-width: 0px;
      }
    </style>
  </defs>
  <path class="cls-1" d="M38.23,0C17.28-.06.12,17.3,0,38.09c-.11,19.85,15.93,38.31,37.92,38.39,21.27.08,38.27-16.92,38.29-38.19C76.5,17.5,59.23.06,38.23,0ZM25.56,14.28c2.05-.56,4.1.57,4.59,2.71.53,2.29.03,4.46-1.5,6.26-1.35,1.6-2.85,1.54-4.23-.06-1.15-1.33-1.52-2.94-1.58-4.3-.03-2.6.94-4.12,2.72-4.61ZM27.62,34.93c.02.62-.43,1.27-.66,1.9-.23.02-.46.04-.69.06-.29-.69-.77-1.37-.84-2.08-.28-2.6.49-7.82,1.37-9.17.89,3.19.69,6.26.82,9.29ZM36.53,44.02c-.02,1.58-.48,1.9-2.71,2.4-.03-2.33-.03-4.61-.1-6.89-.06-2.26.24-4.54-.19-6.77-.2,0-.41-.02-.61-.04-.06.8-.16,1.59-.16,2.38-.01,7.43,0,14.87,0,22.3v1.68c-.02,3.11-1.36,4.09-4.38,3.26-1.09-.29-1.28-1.07-1.28-2.01,0-3.12,0-6.24-.02-9.35,0-.83-.09-1.66-.14-2.48-.19-.02-.37-.03-.56-.05-.1.55-.28,1.1-.29,1.66-.03,3.19,0,6.39-.02,9.59-.01.93.24,2.21-.93,2.45-1.27.25-2.66.05-3.98-.1-.27-.04-.58-.73-.65-1.16-.12-.7-.08-1.43-.08-2.15,0-7.83.01-15.67,0-23.5,0-.84-.07-1.68-.11-2.52-.27.01-.55.01-.82.02v13.49c-2.11-.02-2.81-.44-2.83-1.96-.07-4.63-.04-9.27.02-13.9.02-1.18.72-2.1,1.75-2.71,1.01-.6,4.73-1.39,6.11-1.34,0,2.46.15,4.93-.05,7.36-.17,2.04.56,3.54,1.98,5.02,1.39-1.16,2.27-2.46,2.17-4.29-.11-1.91-.24-3.82-.34-5.74-.04-.77,0-1.55,0-2.64,2.4.41,4.59.76,6.57,1.78,1.15.59,1.64,1.77,1.65,3.03.05,4.39.07,8.79,0,13.18ZM57.2,57.63c-2.52-2.68-4.72-5.02-7.16-7.62-2.4,2.56-4.66,4.96-6.91,7.37-.16-.1-.31-.2-.46-.3v-15.75c1.63.72,3.06,1.65,4.61,1.96,1.68.34,3.51.37,5.19.06,1.58-.29,3.05-1.2,4.73-1.91v16.19ZM49.97,42.76c-5.28-.03-9.57-4.36-9.56-9.67,0-5.43,4.46-9.86,9.77-9.72,5.29.14,9.53,4.54,9.47,9.81-.05,5.27-4.45,9.62-9.68,9.58Z"/>
  <path class="cls-1" d="M53.7,30.53c-1.2-.04-1.91-.51-2.28-1.67-.28-.87-.74-1.69-1.12-2.53-.2.03-.4.06-.6.09-.3.64-.7,1.25-.88,1.91-.42,1.5-1.22,2.31-2.87,2.25-.81-.03-1.62.25-3,.48,1.08.97,1.65,1.61,2.34,2.08,1.17.8,1.4,1.76.97,3.09-.27.82-.8,1.73-.08,2.82,1.31-.74,2.54-1.43,3.82-2.14,1.31.72,2.6,1.44,4.39,2.43-.26-1.4-.31-2.26-.6-3.04-.54-1.44-.08-2.42,1.09-3.28.66-.48,1.2-1.12,2.18-2.06-1.51-.2-2.43-.41-3.36-.43ZM53.1,37.32c-1.29-.65-2.11-1.07-3.04-1.54-.8.37-1.64.76-2.83,1.3.66-2.23.26-3.93-1.68-5.23,2.31-.1,3.83-1.04,4.45-3.38.68,2.3,2.09,3.39,4.52,3.28-1.87,1.45-2.57,3.1-1.42,5.57Z"/>
</svg>