<?xml version="1.0" encoding="UTF-8"?>
<svg id="Layer_1" data-name="Layer 1" xmlns="http://www.w3.org/2000/svg" viewBox="0 0 453.77 341.7">
  <defs>
    <style>
      .cls-1 {
        fill: #fff;
      }

      .cls-1, .cls-2 {
        stroke-width: 0px;
      }

      .cls-2 {
        fill: #eb2a26;
      }
    </style>
  </defs>
  <path class="cls-1" d="M387.3,338.2c3.31-2.33,4.96-5.64,4.96-9.92,0-3.02-.78-5.44-2.35-7.24-1.55-1.83-3.67-3.26-6.37-4.31-1.7-.65-2.86-1.07-3.49-1.26l-2.87-.85c-3.29-.8-5.64-1.67-7.07-2.61-1.43-.94-2.14-2.11-2.14-3.5.04-2.48,1.98-3.72,5.81-3.72s8.66,1.5,14.24,4.49l3.98-8.34c-5.18-3.35-10.97-5.03-17.37-5.03-5.01,0-9.21,1.13-12.6,3.4s-5.09,5.52-5.09,9.76,1.85,7.58,5.55,9.76c1.7.97,4.83,2.12,9.4,3.46,3.14.71,5.49,1.52,7.05,2.42,1.57.9,2.35,2.15,2.35,3.75,0,2.94-2.26,4.41-6.79,4.41-2.09,0-4.53-.52-7.32-1.56-2.79-1.04-5.75-2.72-8.88-5.04l-4.11,8.1c5.96,4.88,12.69,7.31,20.18,7.31,5.31,0,9.62-1.17,12.93-3.49M340.07,304.7h13.98v-8.75h-38.2v8.75h13.91v36.96h10.32v-36.96ZM314.12,333.47l-6.07-6.26c-3.83,3.39-7.79,5.08-11.89,5.08-2.31,0-4.33-.39-6.07-1.17-1.74-.78-3.19-1.82-4.34-3.12-1.15-1.31-2.03-2.78-2.61-4.42-.59-1.64-.88-3.32-.88-5.04,0-4.06,1.35-7.35,4.05-9.86,2.7-2.51,5.99-3.76,9.86-3.76,4.27,0,8.23,2.02,11.89,6.06l6.01-7.43c-5.23-5.09-11.23-7.64-18.03-7.64s-12.77,2.19-17.4,6.56c-4.64,4.38-6.95,9.77-6.95,16.2s2.27,12.08,6.82,16.46c4.55,4.38,10.26,6.56,17.14,6.56s12.78-2.74,18.48-8.23M268.45,333.11h-25.21v-10.12h22.01v-8.56h-22.01v-9.93h24.49v-8.56h-34.81v45.71h35.53v-8.55ZM216.92,340.18c2.34-1.01,4.24-2.66,5.7-4.95,1.35-2.11,2.02-4.94,2.02-8.48v-30.8h-10.38v30.47c0,2.13-.53,3.65-1.6,4.55-1.07.93-2.36,1.39-3.89,1.39-3,0-6.23-1.67-9.66-5.01l-4.77,7.24c4.05,4.74,9.03,7.12,14.96,7.12,2.74,0,5.28-.51,7.62-1.52M161.07,328.8c-2.83-2.59-4.24-5.94-4.24-10.05s1.44-7.38,4.31-9.96c2.87-2.57,6.14-3.86,9.8-3.86,2.44,0,4.7.55,6.79,1.65,2.09,1.1,3.79,2.67,5.09,4.7,1.31,2.03,1.96,4.52,1.96,7.47,0,2.28-.39,4.29-1.18,6.02-.78,1.73-1.83,3.18-3.13,4.36-1.31,1.17-2.79,2.06-4.44,2.66-1.65.6-3.35.9-5.09.9-3.74,0-7.03-1.3-9.86-3.89M188.33,335.14c4.68-4.38,7.02-9.84,7.02-16.39s-2.33-11.89-6.99-16.26c-4.66-4.38-10.51-6.56-17.57-6.56s-12.85,2.17-17.53,6.5c-4.68,4.33-7.02,9.78-7.02,16.33s2.36,12.02,7.09,16.39,10.55,6.56,17.47,6.56,12.85-2.19,17.54-6.56M114.51,319.98v-15.48h9.53c5.96,0,8.95,2.55,8.95,7.64s-2.98,7.84-8.95,7.84h-9.53ZM134.23,326.58c5.7-2.83,8.56-7.75,8.56-14.76,0-3.74-.81-6.78-2.42-9.11-1.72-2.39-4-4.12-6.84-5.18-2.84-1.06-6-1.58-9.49-1.58h-19.85v45.71h10.32v-13.06h10.51l7.25,13.06h11.69l-9.73-15.08ZM71.83,319.98v-15.48h8.56c6.01,0,9.01,2.55,9.01,7.64s-3,7.84-9.01,7.84h-8.56ZM71.83,328.6h9.08c4.31,0,7.8-.73,10.48-2.19,2.74-1.54,4.73-3.59,5.96-6.12,1.23-2.54,1.85-5.36,1.85-8.47,0-4.98-1.56-8.88-4.67-11.67-3.11-2.8-7.65-4.2-13.62-4.2h-19.4v45.71h10.32v-13.06Z"/>
  <path class="cls-1" d="M350.78,39.5c3.09-2.18,4.64-5.26,4.64-9.26,0-2.82-.73-5.08-2.2-6.76-1.44-1.7-3.43-3.05-5.95-4.03-1.59-.61-2.67-1-3.26-1.18l-2.68-.79c-3.07-.74-5.27-1.56-6.6-2.44-1.33-.88-2-1.97-2-3.26.04-2.31,1.85-3.47,5.43-3.47s8.09,1.4,13.3,4.19l3.72-7.79c-4.84-3.13-10.25-4.7-16.23-4.7-4.68,0-8.6,1.06-11.77,3.18-3.17,2.12-4.76,5.16-4.76,9.12s1.73,7.08,5.18,9.12c1.59.9,4.51,1.98,8.78,3.24,2.93.67,5.12,1.42,6.59,2.26,1.46.84,2.2,2.01,2.2,3.5,0,2.74-2.11,4.12-6.34,4.12-1.95,0-4.23-.48-6.83-1.45s-5.37-2.54-8.3-4.71l-3.84,7.57c5.57,4.55,11.85,6.83,18.85,6.83,4.96,0,8.99-1.09,12.08-3.26M290.55,22.48v-14.46h8.91c5.57,0,8.36,2.38,8.36,7.14s-2.79,7.32-8.36,7.32h-8.91ZM308.97,28.64c5.33-2.64,7.99-7.24,7.99-13.79,0-3.5-.75-6.33-2.26-8.51-1.61-2.24-3.74-3.85-6.39-4.83-2.65-.99-5.61-1.48-8.86-1.48h-18.54v42.7h9.64v-12.2h9.82l6.77,12.2h10.92l-9.09-14.09ZM247.64,26.69l6.77-16.59,6.71,16.59h-13.48ZM259.65.03h-9.94l-18.54,42.7h9.94l3.36-8.3h19.76l3.35,8.3h10.31L259.65.03ZM228.93,34.74h-23.55v-9.45h20.56v-7.99h-20.56v-9.27h22.88V.03h-32.51v42.7h33.18v-7.99ZM177.14,28.95L192.7.03h-9.7l-10.68,19.15L161.4.03h-9.7l15.8,29.16v13.54h9.64v-13.79ZM98.36,14.06h8.54l.06-5.98h14.09l-16.23,34.65h10.19l16.84-35.81V.03h-33.49v14.03Z"/>
  <g>
    <path class="cls-1" d="M282.21,84c-14.22,18.02-21.33,43.87-21.33,77.55s7.11,59.29,21.33,77.4c14.22,18.12,34.76,27.17,61.61,27.17s46.79-9.06,61.01-27.17c14.22-18.11,21.33-43.91,21.33-77.4s-7.11-59.53-21.33-77.55c-14.22-18.01-34.56-27.02-61.01-27.02s-47.39,9.01-61.61,27.02M201.36,109.55c5.37,10.78,8.06,28.11,8.06,52s-2.74,40.99-8.21,51.86c-5.47,10.88-14.07,16.31-25.81,16.31s-20.64-5.44-26.11-16.31c-5.47-10.88-8.2-28.16-8.2-51.86s2.73-41.22,8.2-52c5.47-10.78,14.17-16.17,26.11-16.17s20.59,5.39,25.96,16.17M113.79,84c-14.22,18.02-21.33,43.87-21.33,77.55s7.11,59.29,21.33,77.4c14.22,18.12,34.76,27.17,61.61,27.17s46.79-9.06,61.01-27.17c14.22-18.11,21.33-43.91,21.33-77.4s-7.11-59.53-21.33-77.55c-14.22-18.01-34.56-27.02-61.01-27.02s-47.39,9.01-61.61,27.02M88.91,57.13H0v39.98h41.77v168.87h47.14V57.13Z"/>
    <polygon class="cls-2" points="395.93 115.46 395.93 152.01 359.15 152.01 359.15 173.95 395.93 173.95 395.93 210.29 417 210.29 417 173.95 453.77 173.95 453.77 152.01 417 152.01 417 115.46 395.93 115.46"/>
  </g>
</svg>