<?xml version="1.0" encoding="UTF-8"?>
<svg id="Layer_1" data-name="Layer 1" xmlns="http://www.w3.org/2000/svg" viewBox="0 0 75.48 75.57">
  <defs>
    <style>
      .cls-1 {
        fill: #fff;
        stroke-width: 0px;
      }
    </style>
  </defs>
  <path class="cls-1" d="M0,35.67C-.2,17.49,17.44-.16,35.71,0c.3,5.36-.04,10.76.21,16.46,1.24-.31,2.27-.65,3.32-.83,2.78-.47,5.24,1.42,5.39,4.09.15,2.64-1.88,4.78-4.57,4.75-.63,0-1.26-.18-1.88-.32-.61-.14-1.21-.34-1.97-.56-.72,2.02-.28,4-.36,5.93-.08,1.97-.02,3.94-.02,6.11h-6.68c-.17-.61-.37-1.28-.55-1.95-1.03-4.05-4.43-6.79-8.48-6.84-4.03-.05-7.55,2.66-8.64,6.65-.18.68-.36,1.37-.57,2.18H0Z"/>
  <path class="cls-1" d="M76.16,35.79h-16.86c.34,1.23.57,2.04.79,2.86.58,2.16-.09,4.15-1.78,5.27-1.53,1.01-3.69.96-5.19-.13-1.59-1.16-2.18-3.02-1.63-5.11.18-.69.39-1.38.56-2.07.03-.13-.07-.3-.18-.69-3.8-.06-7.67-.12-11.66-.18v-6.62c5.08-1.02,8.71-3.57,8.66-9.18-.05-5.48-3.62-8.01-8.66-9V.19c5.35-1.28,16.5,3.16,23.21,9.28,7.64,6.96,11.91,15.58,12.72,26.32Z"/>
  <path class="cls-1" d="M35.69,64.86v10.83c-5.29,1.32-16.85-3.49-23.6-9.56C3.92,58.78-.68,46.85.09,40.13c5.34-.14,10.74.03,16.41-.1-.35-1.39-.72-2.51-.89-3.65-.34-2.31.81-4.2,2.88-4.94,2.05-.74,4.3.05,5.42,1.9.75,1.25.74,2.59.39,3.94-.2.76-.46,1.51-.78,2.57,4.08.54,8.04-.06,12.12.39v6.41c-.66.19-1.33.37-2,.56-4.1,1.17-6.78,4.54-6.79,8.55-.01,4.11,2.73,7.55,6.94,8.67.53.14,1.08.25,1.91.43Z"/>
  <path class="cls-1" d="M40.11,76.17c-.1-5.78.03-11.16-.09-16.87-1.23.34-2.05.58-2.87.8-2.09.55-4.11-.18-5.26-1.88-1.05-1.57-1.03-3.38.06-4.94,1.13-1.61,3.07-2.31,5.07-1.8.83.21,1.65.48,2.76.8.67-4.06-.07-7.96.5-11.99h6.32c2.09,6.31,4.72,8.71,9.39,8.63,4.48-.08,7.17-2.64,8.95-8.67h11.15c-.56,9.12-3.94,16.84-9.94,23.39-6.87,7.5-15.41,11.68-26.04,12.52Z"/>
</svg>