<?xml version="1.0" encoding="UTF-8"?>
<svg id="Layer_1" data-name="Layer 1" xmlns="http://www.w3.org/2000/svg" viewBox="0 0 76.87 76.56">
  <defs>
    <style>
      .cls-1 {
        fill: #fff;
        stroke-width: 0px;
      }
    </style>
  </defs>
  <path class="cls-1" d="M38.43.02C19.02-.58.23,15.65,0,37.87c-.21,21.11,16.97,38.42,37.96,38.68,21.03.27,38.61-16.64,38.91-37.72C77.2,16.05,57.95-.63,38.43.02ZM38.39,14.24c5.82-.03,10.94,4.8,10.89,10.55-.07,7.49-5.59,11.12-10.79,11-6.16.03-10.8-4.5-10.92-10.66-.12-5.8,4.9-10.85,10.82-10.89ZM17.02,53.57c-.01,3.2-.48,3.53-3.87,2.7v-20.57c.37-.12.73-.31,1.1-.34,2.44-.15,2.76.13,2.77,2.63.02,5.2.01,10.39,0,15.58ZM49.28,52.92c-.46.36-1.43.56-1.89.31-1.18-.65-2.19-1.6-3.27-2.42-.57-.43-1.11-.95-1.75-1.24-.34-.16-1.03-.06-1.25.2-.19.22-.09.97.15,1.23.65.69,1.45,1.25,2.18,1.87.55.46,1.23.85,1.59,1.43.27.45.33,1.24.12,1.72-.32.75-1.11.89-1.84.5-.56-.29-1.06-.71-1.57-1.11-1.13-.88-2.25-1.79-3.39-2.67-.54-.42-1.27-.73-1.64-.02-.19.36.13,1.22.49,1.58.9.9,1.97,1.63,2.95,2.46.76.64,1.49,1.34.74,2.42-.54.8-1.56.75-2.74-.14-1.15-.86-2.25-1.8-3.38-2.69-.44-.34-.88-.72-1.39-.92-.3-.12-.96-.02-1.04.16-.17.36-.21,1.01.01,1.25.64.71,1.42,1.29,2.16,1.9,1.4,1.17,1.73,1.94,1.14,2.74-.59.8-1.42.76-2.97-.24-1.81-1.17-3.59-2.4-5.39-3.59-2.43-1.62-4.57-3.84-8-3.52v-14.97c5.15.38,10.07-.82,14.81.9.05.21.1.42.15.63-.96.48-1.9.99-2.87,1.42-1.45.65-2.36,1.64-2.26,3.32.09,1.43,1.2,2.82,2.93,3.06,1.36.19,2.86.05,4.2-.33,1.68-.47,3.26-1.3,4.86-2.03.83-.38,1.45-.28,2.18.31,1.54,1.27,3.18,2.42,4.77,3.63.38.29.77.58,1.09.94.52.59.78,1.4.12,1.91ZM57.42,53.89c-1.86.66-3.74.33-5.76.23,0-1.86.36-3.78-1.57-5.05.5-.37.89-.54,1.11-.84.57-.75.34-1.36-.58-1.55-.47-.09-.96-.04-1.44-.08-2.03-.19-3.97-.59-5.18-2.5-.62-.98-1.41-.81-2.29-.42-1.97.86-3.93,1.8-5.96,2.51-1,.35-2.17.38-3.23.28-.45-.04-1.03-.75-1.17-1.25-.09-.32.46-1,.87-1.22,1.56-.81,3.24-1.39,4.76-2.25,3.74-2.09,7.69-2.95,11.97-2.6,1.98.17,3.99.02,5.98.04.78.01,1.56.09,2.49.15v14.55ZM63.79,56.47c-.97.06-1.88.17-2.79.16-.85-.01-1.31-.52-1.34-1.38-.02-.56-.03-1.12-.03-1.68v-14.87c0-3.53.35-3.79,4.16-3.01v20.78Z"/>
  <path class="cls-1" d="M44.5,22.7c-.06.49.05,1.22-.23,1.45-2.25,1.79-4.55,3.5-6.89,5.17-.32.23-1.03.29-1.34.09-1.26-.83-2.47-1.75-3.61-2.74-.21-.18-.15-.89.03-1.24.08-.18.78-.28,1.04-.13,1.03.59,1.99,1.29,3.19,2.09,1.81-1.34,3.47-2.58,5.14-3.81.44-.33.87-.74,1.38-.93.37-.14.86.02,1.29.05Z"/>
</svg>